<?xml version="1.0" standalone="no"?>
<!DOCTYPE svg PUBLIC "-//W3C//DTD SVG 20010904//EN"
 "http://www.w3.org/TR/2001/REC-SVG-20010904/DTD/svg10.dtd">
<svg version="1.0" xmlns="http://www.w3.org/2000/svg"
 width="215.000000pt" height="216.000000pt" viewBox="0 0 215.000000 216.000000"
 preserveAspectRatio="xMidYMid meet">

<g transform="translate(0.000000,216.000000) scale(0.100000,-0.100000)"
fill="#000000" stroke="none">
<path d="M0 1080 l0 -1080 1075 0 1075 0 0 294 c0 249 -2 295 -15 306 -8 7
-15 18 -14 24 0 7 2 6 6 -1 18 -47 23 23 23 351 0 282 -3 365 -12 369 -10 4
-10 6 0 6 7 1 12 16 12 40 0 22 -5 42 -12 44 -10 4 -10 6 0 6 16 1 16 48 0 54
-10 4 -10 6 0 6 16 1 16 38 0 45 -10 5 -10 7 0 12 9 4 12 59 12 225 0 174 -3
219 -12 213 -10 -6 -10 -4 -2 7 16 20 17 141 2 151 -22 13 -46 9 -51 -9 -4
-17 -5 -17 -6 0 -1 13 -10 17 -39 17 -21 0 -43 -5 -50 -12 -9 -9 -12 -9 -12 0
0 9 -116 12 -495 11 -418 -1 -495 -3 -495 -15 0 -16 -16 -19 -24 -5 -4 5 0 11
6 14 7 3 -8 5 -34 5 -35 0 -48 -5 -51 -17 -4 -14 -5 -14 -6 2 -1 16 -29 17
-441 17 l-440 0 0 -1080z m835 1060 c-3 -5 -11 -10 -16 -10 -6 0 -7 5 -4 10 3
6 11 10 16 10 6 0 7 -4 4 -10z m1040 0 c3 -5 1 -10 -4 -10 -6 0 -11 5 -11 10
0 6 2 10 4 10 3 0 8 -4 11 -10z m76 -9 c12 -11 16 -22 11 -25 -6 -3 -12 1 -16
9 -3 8 -12 15 -21 15 -8 0 -15 5 -15 10 0 16 19 12 41 -9z m-911 -1 c0 -5 -2
-10 -4 -10 -3 0 -8 5 -11 10 -3 6 -1 10 4 10 6 0 11 -4 11 -10z m111 -11 c8
-17 8 -20 -2 -17 -7 2 -13 12 -15 21 -3 23 3 21 17 -4z m-142 -26 c2 -2 -3 -3
-11 -3 -9 0 -19 7 -22 16 -6 15 -4 15 11 3 10 -7 20 -15 22 -16z m1056 -3 c-3
-5 -12 -10 -18 -10 -7 0 -6 4 3 10 19 12 23 12 15 0z m-1135 -10 c0 -5 -4 -10
-10 -10 -5 0 -10 5 -10 10 0 6 5 10 10 10 6 0 10 -4 10 -10z m239 -6 c-14 -17
-25 -18 -32 -1 -3 7 5 13 20 13 19 2 22 -1 12 -12z m961 11 c0 -2 -10 -10 -22
-16 -21 -11 -22 -11 -9 4 13 16 31 23 31 12z m-975 -56 c17 -4 -10 -7 -64 -8
-52 0 -92 2 -88 5 3 3 28 7 54 8 43 1 48 4 52 26 l4 25 6 -25 c5 -17 16 -27
36 -31z m695 7 c0 -3 -4 -8 -10 -11 -5 -3 -10 -1 -10 4 0 6 5 11 10 11 6 0 10
-2 10 -4z m280 -5 c0 -5 -7 -11 -14 -14 -10 -4 -13 -1 -9 9 6 15 23 19 23 5z
m-1147 -8 c-7 -2 -19 -2 -25 0 -7 3 -2 5 12 5 14 0 19 -2 13 -5z m-64 -7 c-2
-2 -20 -6 -39 -10 -25 -4 -31 -3 -20 4 14 9 69 15 59 6z m381 -12 c0 -2 -7 -4
-15 -4 -8 0 -15 4 -15 10 0 5 7 7 15 4 8 -4 15 -8 15 -10z m-475 -4 c3 -5 1
-10 -4 -10 -6 0 -11 5 -11 10 0 6 2 10 4 10 3 0 8 -4 11 -10z m-54 -25 c-40
-18 -41 -18 -41 -4 0 5 4 8 8 5 4 -2 14 -1 22 5 8 5 22 9 30 8 8 0 0 -6 -19
-14z m613 6 c4 -5 -3 -7 -14 -4 -23 6 -26 13 -6 13 8 0 17 -4 20 -9z m720 1
c3 -5 -1 -9 -9 -9 -8 0 -12 4 -9 9 3 4 7 8 9 8 2 0 6 -4 9 -8z m-1233 -29 c13
-16 12 -17 -3 -4 -10 7 -18 15 -18 17 0 8 8 3 21 -13z m-223 -36 c-42 -24 -93
-58 -113 -75 -21 -17 -44 -28 -52 -25 -16 6 -13 25 7 31 8 3 10 0 5 -8 -5 -8
-3 -11 6 -8 8 3 13 10 12 16 -2 6 3 9 10 7 18 -6 70 42 61 58 -5 9 -4 9 6 0
10 -9 21 -7 49 11 38 24 59 34 76 35 5 1 -25 -19 -67 -42z m822 28 c14 -8 21
-14 15 -14 -5 0 -21 6 -35 14 -14 8 -20 14 -15 14 6 0 21 -6 35 -14z m-1143
-17 c-3 -8 -6 -5 -6 6 -1 11 2 17 5 13 3 -3 4 -12 1 -19z m1743 12 c0 -5 -2
-10 -4 -10 -3 0 -8 5 -11 10 -3 6 -1 10 4 10 6 0 11 -4 11 -10z m-1695 -37
c-9 -8 -19 -13 -22 -9 -9 8 18 37 28 30 5 -3 2 -12 -6 -21z m1251 -65 c4 -6
-14 4 -40 22 -62 45 -73 63 -13 21 25 -17 49 -37 53 -43z m444 52 c0 -5 -5
-10 -11 -10 -5 0 -7 5 -4 10 3 6 8 10 11 10 2 0 4 -4 4 -10z m-1660 -21 c0
-14 -17 -10 -23 5 -4 10 -1 13 9 9 7 -3 14 -9 14 -14z m715 -41 c25 -11 65
-76 65 -106 0 -34 -35 -84 -71 -103 -23 -11 -39 -15 -39 -9 0 7 -8 9 -20 5
-50 -16 -119 71 -105 133 7 34 50 86 64 77 5 -3 12 -1 16 5 8 14 58 13 90 -2z
m-708 -38 c-1 -11 -12 -23 -28 -29 -24 -8 -26 -7 -21 12 3 12 7 16 10 9 6 -18
20 -14 27 8 8 26 14 26 12 0z m62 16 c-2 -2 -15 -9 -29 -15 -24 -11 -24 -11
-6 3 16 13 49 24 35 12z m1216 -14 c-3 -3 -11 0 -18 7 -9 10 -8 11 6 5 10 -3
15 -9 12 -12z m-1358 -22 c15 -24 8 -28 -50 -34 -26 -3 -52 -8 -59 -12 -10 -6
-9 -3 0 9 8 9 21 16 30 15 10 -1 33 0 52 1 29 1 32 3 18 12 -10 5 -18 14 -18
19 0 16 14 11 27 -10z m1417 5 c25 -19 9 -19 -24 0 -14 8 -19 14 -10 14 8 0
24 -6 34 -14z m356 5 c0 -5 -4 -10 -10 -10 -5 0 -10 5 -10 10 0 6 5 10 10 10
6 0 10 -4 10 -10z m-285 -30 c13 -5 14 -9 5 -9 -8 0 -24 4 -35 9 -13 5 -14 9
-5 9 8 0 24 -4 35 -9z m175 0 c0 -5 -2 -10 -4 -10 -3 0 -8 5 -11 10 -3 6 -1
10 4 10 6 0 11 -4 11 -10z m-107 -17 c-7 -2 -19 -2 -25 0 -7 3 -2 5 12 5 14 0
19 -2 13 -5z m44 -9 c-3 -3 -12 -4 -19 -1 -8 3 -5 6 6 6 11 1 17 -2 13 -5z
m60 0 c-3 -3 -12 -4 -19 -1 -8 3 -5 6 6 6 11 1 17 -2 13 -5z m73 -4 c0 -5 -2
-10 -4 -10 -3 0 -8 5 -11 10 -3 6 -1 10 4 10 6 0 11 -4 11 -10z m-1943 -102
c-3 -7 -5 -2 -5 12 0 14 2 19 5 13 2 -7 2 -19 0 -25z m1949 -113 c2 -27 -6
-31 -23 -14 -9 9 -8 15 0 25 17 19 22 17 23 -11z m-46 -27 c0 -19 -2 -20 -10
-8 -13 19 -13 30 0 30 6 0 10 -10 10 -22z m-826 -18 c28 -6 79 -25 115 -43 74
-36 181 -130 181 -158 0 -10 6 -19 14 -19 17 0 46 -48 75 -124 21 -56 21 -59
4 -73 -17 -13 -17 -14 3 -8 20 5 22 0 28 -52 21 -204 -84 -432 -249 -535 -53
-33 -162 -76 -200 -78 -83 -6 -165 1 -177 14 -10 10 -20 11 -32 4 -9 -5 -22
-7 -29 -4 -7 2 -3 5 8 6 l20 1 -20 8 c-12 5 -23 4 -27 -3 -5 -7 -8 -3 -9 9 0
11 -2 30 -3 42 -1 12 1 20 5 18 4 -3 12 2 19 11 10 12 11 17 1 27 -10 9 -11 8
-6 -5 10 -25 -24 -24 -70 3 -22 13 -35 17 -33 9 2 -7 -6 -13 -18 -15 -16 -1
-20 3 -17 16 3 9 0 19 -5 23 -5 3 -12 -6 -15 -20 -5 -26 24 -64 49 -64 6 0 17
-7 24 -15 7 -9 21 -13 30 -10 11 3 20 -1 24 -11 5 -13 2 -15 -20 -10 -40 10
-149 81 -146 95 1 7 -2 10 -8 6 -18 -11 -105 91 -142 166 -79 162 -79 334 -2
497 108 226 367 347 628 292z m916 -4 c0 -3 -4 -8 -10 -11 -5 -3 -10 -1 -10 4
0 6 5 11 10 11 6 0 10 -2 10 -4z m-53 -31 c-14 -14 -47 -8 -47 9 0 8 11 11 29
8 23 -3 27 -7 18 -17z m27 -31 c3 -8 2 -12 -4 -9 -6 3 -10 10 -10 16 0 14 7
11 14 -7z m-62 -58 c-3 -5 -9 -1 -13 10 -12 31 -10 39 5 19 8 -11 12 -24 8
-29z m78 14 c0 -5 -5 -10 -11 -10 -5 0 -7 5 -4 10 3 6 8 10 11 10 2 0 4 -4 4
-10z m-1983 -82 c-3 -8 -6 -5 -6 6 -1 11 2 17 5 13 3 -3 4 -12 1 -19z m1916
-32 c4 -10 1 -13 -9 -9 -7 3 -14 9 -14 14 0 14 17 10 23 -5z m17 -276 c0 -5
-2 -10 -4 -10 -3 0 -8 5 -11 10 -3 6 -1 10 4 10 6 0 11 -4 11 -10z m-16 -293
c7 -6 6 -7 -4 -4 -8 2 -16 12 -17 23 -2 13 -1 15 4 4 3 -8 11 -19 17 -23z m56
19 c0 -3 -4 -8 -10 -11 -5 -3 -10 -1 -10 4 0 6 5 11 10 11 6 0 10 -2 10 -4z
m-30 -46 c0 -5 -2 -10 -4 -10 -3 0 -8 5 -11 10 -3 6 -1 10 4 10 6 0 11 -4 11
-10z m-49 -23 c-10 -9 -11 -8 -5 6 3 10 9 15 12 12 3 -3 0 -11 -7 -18z m84
-28 c2 -13 -19 -16 -54 -10 -3 1 4 8 15 16 22 17 36 15 39 -6z m-65 7 c0 -3
-4 -8 -10 -11 -5 -3 -10 -1 -10 4 0 6 5 11 10 11 6 0 10 -2 10 -4z m-10 -67
c0 -6 -4 -7 -10 -4 -5 3 -10 11 -10 16 0 6 5 7 10 4 6 -3 10 -11 10 -16z m60
-23 c0 -2 -9 -6 -20 -9 -11 -3 -18 -1 -14 4 5 9 34 13 34 5z m-1245 -46 c3 -5
2 -10 -4 -10 -5 0 -13 5 -16 10 -3 6 -2 10 4 10 5 0 13 -4 16 -10z m43 -2 c-2
-6 -10 -14 -16 -16 -7 -2 -10 2 -6 12 7 18 28 22 22 4z m1110 -25 c-10 -2 -28
-2 -40 0 -13 2 -5 4 17 4 22 1 32 -1 23 -4z m-103 -8 c-38 -14 -85 -22 -85
-15 0 5 10 11 23 13 27 5 76 7 62 2z m-135 -35 c-8 -5 -19 -10 -25 -10 -5 0
-3 5 5 10 8 5 20 10 25 10 6 0 3 -5 -5 -10z m-1335 -10 c3 -6 -1 -7 -9 -4 -18
7 -21 14 -7 14 6 0 13 -4 16 -10z m1290 -10 c-3 -5 -12 -10 -18 -10 -7 0 -6 4
3 10 19 12 23 12 15 0z m-35 -15 c0 -2 -10 -9 -22 -15 -22 -11 -22 -10 -4 4
21 17 26 19 26 11z m-1139 -42 c13 -16 12 -17 -3 -4 -17 13 -22 21 -14 21 2 0
10 -8 17 -17z m1073 -1 c-25 -23 -84 -65 -84 -59 0 5 91 77 99 77 2 0 -4 -8
-15 -18z m-119 -82 c-3 -5 -12 -10 -18 -10 -7 0 -6 4 3 10 19 12 23 12 15 0z
m-452 -97 c-7 -2 -19 -2 -25 0 -7 3 -2 5 12 5 14 0 19 -2 13 -5z m90 0 c-7 -2
-19 -2 -25 0 -7 3 -2 5 12 5 14 0 19 -2 13 -5z m44 1 c-3 -3 -12 -4 -19 -1 -8
3 -5 6 6 6 11 1 17 -2 13 -5z"/>
<path d="M1045 1179 c-4 -6 -19 -7 -35 -4 -17 4 -31 2 -36 -6 -4 -7 -3 -10 3
-6 6 4 18 -5 27 -18 9 -14 21 -23 26 -20 6 3 34 7 62 7 30 1 60 7 70 16 9 7
22 11 27 7 6 -3 11 -2 11 2 0 25 -141 45 -155 22z"/>
<path d="M1172 1100 c-51 -51 -77 -60 -111 -38 -26 16 -51 3 -51 -25 0 -28 24
-53 67 -67 23 -9 30 -16 26 -31 -6 -23 -8 -23 -36 -4 -13 8 -52 19 -87 23 -48
7 -69 15 -85 33 -12 13 -31 32 -42 42 -21 18 -22 18 -33 -3 -10 -18 -8 -24 7
-36 17 -14 17 -14 -1 -12 -14 2 -21 -5 -27 -27 -10 -34 -1 -105 13 -105 5 0 6
-4 3 -10 -10 -15 24 -77 64 -117 54 -55 133 -86 203 -81 65 5 74 10 60 33 -7
13 -3 23 15 41 26 26 31 72 8 80 -8 4 -15 10 -15 15 0 14 37 5 60 -16 11 -10
20 -13 20 -7 0 7 9 12 20 12 11 0 20 7 20 15 0 8 5 15 11 15 5 0 7 -5 3 -12
-4 -6 -3 -8 3 -5 17 11 22 57 7 57 -8 0 -14 5 -14 10 0 6 5 10 11 10 12 0 1
43 -12 48 -17 7 -9 22 11 22 12 0 20 7 20 16 0 10 -6 14 -14 11 -10 -4 -13 -1
-9 9 4 12 8 12 21 2 13 -11 14 -10 6 7 -6 11 -9 30 -9 42 2 14 -13 37 -40 63
l-42 41 -51 -51z m-292 -215 c0 -8 -4 -15 -10 -15 -5 0 -10 7 -10 15 0 8 5 15
10 15 6 0 10 -7 10 -15z m203 -6 c11 1 21 -7 27 -24 14 -37 13 -40 -7 -23 -30
25 -101 49 -106 35 -2 -6 -20 -12 -39 -12 -26 -1 -34 3 -31 13 3 7 11 11 17 9
6 -2 27 1 46 8 25 9 40 9 55 2 11 -6 28 -10 38 -8z m47 6 c10 -12 10 -15 -4
-15 -9 0 -16 7 -16 15 0 8 2 15 4 15 2 0 9 -7 16 -15z m-259 -49 c-8 -9 5 -15
50 -25 33 -8 62 -11 66 -8 7 8 93 -51 93 -63 0 -6 -4 -10 -9 -10 -5 0 -8 -12
-6 -27 2 -16 2 -22 -1 -15 -3 6 -12 12 -20 12 -7 0 -24 15 -36 34 -20 30 -27
34 -58 31 -19 -2 -41 1 -47 7 -9 7 -13 7 -13 -1 0 -8 -5 -8 -19 1 -13 8 -18
20 -16 37 2 14 4 32 4 39 1 7 6 10 11 7 8 -5 8 -11 1 -19z m107 -142 c-4 -3
-12 5 -18 18 -12 22 -12 22 6 6 10 -10 15 -20 12 -24z"/>
<path d="M1327 993 c-11 -10 -8 -20 7 -26 10 -4 12 0 9 14 -6 21 -7 22 -16 12z"/>
<path d="M1310 939 c0 -5 5 -7 10 -4 6 3 10 8 10 11 0 2 -4 4 -10 4 -5 0 -10
-5 -10 -11z"/>
<path d="M675 787 c-4 -10 -5 -21 -1 -24 10 -10 18 4 13 24 -4 17 -4 17 -12 0z"/>
<path d="M745 739 c-4 -6 -5 -12 -2 -15 2 -3 7 2 10 11 7 17 1 20 -8 4z"/>
<path d="M700 721 c0 -10 19 -25 25 -20 1 2 -3 10 -11 17 -8 7 -14 8 -14 3z"/>
<path d="M980 621 c0 -6 4 -13 10 -16 6 -3 7 1 4 9 -7 18 -14 21 -14 7z"/>
<path d="M815 602 c-3 -9 -3 -13 1 -9 4 4 13 2 21 -5 20 -17 22 -5 2 14 -16
15 -18 15 -24 0z"/>
<path d="M1253 595 c2 -11 9 -19 15 -17 7 1 12 -3 12 -9 0 -5 5 -7 11 -3 6 3
15 1 19 -6 6 -9 11 -7 20 10 15 28 8 35 -20 20 -18 -10 -24 -9 -31 1 -5 8 -9
10 -9 4 0 -5 -5 -3 -11 5 -8 12 -9 11 -6 -5z"/>
<path d="M923 583 c0 -12 5 -19 9 -17 11 7 10 -3 -3 -29 -10 -21 -10 -21 5 -3
20 24 20 27 2 52 -14 19 -15 18 -13 -3z"/>
<path d="M1021 586 c-8 -10 -8 -16 3 -25 10 -9 16 -9 21 -1 4 6 4 14 1 17 -3
4 -6 1 -6 -6 0 -7 -5 -9 -10 -6 -8 5 -7 11 1 21 6 8 9 14 6 14 -2 0 -10 -6
-16 -14z"/>
<path d="M1440 584 c0 -8 5 -12 10 -9 6 4 8 11 5 16 -9 14 -15 11 -15 -7z"/>
<path d="M1213 576 c-31 -15 -29 -28 2 -14 14 6 25 15 25 20 0 4 -1 7 -2 7 -2
-1 -13 -6 -25 -13z"/>
<path d="M1145 570 c-3 -5 -1 -10 5 -10 6 0 8 -4 5 -10 -10 -16 -43 -12 -54 8
-12 19 -14 12 -5 -12 3 -9 16 -16 28 -16 29 0 61 24 52 38 -9 15 -23 15 -31 2z"/>
<path d="M1377 548 c4 -18 1 -28 -6 -28 -7 0 -9 5 -5 12 4 7 3 8 -5 4 -9 -6
-9 -11 0 -22 7 -8 7 -14 1 -14 -5 0 -12 -9 -15 -20 -8 -31 9 -24 23 9 6 16 20
31 31 34 13 4 17 10 12 23 -4 12 -3 15 5 10 7 -4 10 -2 7 6 -3 7 -16 13 -29
13 -21 0 -24 -4 -19 -27z"/>
<path d="M1057 546 c-4 -9 -3 -15 2 -12 10 7 23 -19 14 -28 -4 -3 -13 0 -21 7
-13 11 -14 9 -1 -11 13 -21 15 -21 27 -5 15 21 15 25 -1 47 -13 17 -14 18 -20
2z"/>
<path d="M1307 533 c-4 -6 0 -13 8 -17 8 -3 17 0 21 6 4 6 3 8 -4 4 -5 -3 -12
-1 -14 6 -3 8 -6 9 -11 1z"/>
<path d="M895 510 c3 -5 8 -10 11 -10 2 0 4 5 4 10 0 6 -5 10 -11 10 -5 0 -7
-4 -4 -10z"/>
<path d="M1292 488 c2 -6 10 -14 16 -16 7 -2 10 2 6 12 -7 18 -28 22 -22 4z"/>
<path d="M1252 464 c-18 -12 -20 -19 -12 -29 7 -8 9 -18 6 -23 -3 -5 6 -7 20
-4 19 3 22 7 14 17 -8 10 -7 16 6 23 9 5 14 14 10 21 -10 15 -17 14 -44 -5z"/>
<path d="M910 436 c0 -2 7 -7 16 -10 8 -3 12 -2 9 4 -6 10 -25 14 -25 6z"/>
<path d="M1175 430 c3 -5 13 -10 21 -10 8 0 12 5 9 10 -3 6 -13 10 -21 10 -8
0 -12 -4 -9 -10z"/>
<path d="M1092 408 c7 -15 15 -23 17 -17 2 6 -4 18 -13 27 -15 15 -15 15 -4
-10z"/>
</g>
</svg>
